<mxfile host="Electron" agent="Mozilla/5.0 (Windows NT 10.0; Win64; x64) AppleWebKit/537.36 (KHTML, like Gecko) draw.io/26.0.9 Chrome/128.0.6613.186 Electron/32.2.5 Safari/537.36" version="26.0.9" pages="2">
  <diagram id="ridPt0Jgx23qtXndOGzo" name="訊號流程圖Launch-2">
    <mxGraphModel dx="1646" dy="482" grid="1" gridSize="10" guides="1" tooltips="1" connect="1" arrows="1" fold="1" page="1" pageScale="1" pageWidth="827" pageHeight="1169" math="0" shadow="0">
      <root>
        <mxCell id="0" />
        <mxCell id="1" parent="0" />
        <mxCell id="5KuGOnc_hFSbMWcKj4Z0-22" value="FC board" style="rounded=0;whiteSpace=wrap;html=1;labelPosition=left;verticalLabelPosition=top;align=right;verticalAlign=bottom;" parent="1" vertex="1">
          <mxGeometry x="-110" y="170" width="430" height="260" as="geometry" />
        </mxCell>
        <mxCell id="5KuGOnc_hFSbMWcKj4Z0-7" value="" style="edgeStyle=orthogonalEdgeStyle;rounded=0;orthogonalLoop=1;jettySize=auto;html=1;" parent="1" source="5KuGOnc_hFSbMWcKj4Z0-1" target="5KuGOnc_hFSbMWcKj4Z0-2" edge="1">
          <mxGeometry relative="1" as="geometry" />
        </mxCell>
        <mxCell id="5KuGOnc_hFSbMWcKj4Z0-1" value="GPSR antenna" style="rounded=0;whiteSpace=wrap;html=1;fillColor=#dae8fc;strokeColor=#6c8ebf;" parent="1" vertex="1">
          <mxGeometry x="-450" y="180" width="120" height="60" as="geometry" />
        </mxCell>
        <mxCell id="5KuGOnc_hFSbMWcKj4Z0-12" style="edgeStyle=orthogonalEdgeStyle;rounded=0;orthogonalLoop=1;jettySize=auto;html=1;entryX=0.5;entryY=0;entryDx=0;entryDy=0;startArrow=classic;startFill=1;" parent="1" source="5KuGOnc_hFSbMWcKj4Z0-2" target="5KuGOnc_hFSbMWcKj4Z0-10" edge="1">
          <mxGeometry relative="1" as="geometry" />
        </mxCell>
        <mxCell id="5KuGOnc_hFSbMWcKj4Z0-16" value="UART" style="edgeLabel;html=1;align=center;verticalAlign=middle;resizable=0;points=[];" parent="5KuGOnc_hFSbMWcKj4Z0-12" vertex="1" connectable="0">
          <mxGeometry x="-0.2318" relative="1" as="geometry">
            <mxPoint x="-1" as="offset" />
          </mxGeometry>
        </mxCell>
        <mxCell id="5KuGOnc_hFSbMWcKj4Z0-2" value="INS/GNSS&lt;div&gt;(MTi-7)&lt;/div&gt;" style="rounded=0;whiteSpace=wrap;html=1;fillColor=#dae8fc;strokeColor=#6c8ebf;" parent="1" vertex="1">
          <mxGeometry x="-310" y="180" width="120" height="60" as="geometry" />
        </mxCell>
        <mxCell id="5KuGOnc_hFSbMWcKj4Z0-11" style="edgeStyle=orthogonalEdgeStyle;rounded=0;orthogonalLoop=1;jettySize=auto;html=1;entryX=0;entryY=0.75;entryDx=0;entryDy=0;startArrow=classic;startFill=1;" parent="1" source="5KuGOnc_hFSbMWcKj4Z0-3" target="5KuGOnc_hFSbMWcKj4Z0-10" edge="1">
          <mxGeometry relative="1" as="geometry" />
        </mxCell>
        <mxCell id="5KuGOnc_hFSbMWcKj4Z0-17" value="SPI" style="edgeLabel;html=1;align=center;verticalAlign=middle;resizable=0;points=[];" parent="5KuGOnc_hFSbMWcKj4Z0-11" vertex="1" connectable="0">
          <mxGeometry x="0.04" relative="1" as="geometry">
            <mxPoint x="-1" as="offset" />
          </mxGeometry>
        </mxCell>
        <mxCell id="5KuGOnc_hFSbMWcKj4Z0-32" value="" style="edgeStyle=orthogonalEdgeStyle;rounded=0;orthogonalLoop=1;jettySize=auto;html=1;" parent="1" source="5KuGOnc_hFSbMWcKj4Z0-3" target="5KuGOnc_hFSbMWcKj4Z0-8" edge="1">
          <mxGeometry relative="1" as="geometry" />
        </mxCell>
        <mxCell id="5KuGOnc_hFSbMWcKj4Z0-3" value="LoRa&lt;div&gt;(SX1276RF1JAS)&lt;/div&gt;" style="rounded=0;whiteSpace=wrap;html=1;fillColor=#dae8fc;strokeColor=#6c8ebf;" parent="1" vertex="1">
          <mxGeometry x="-310" y="360" width="120" height="60" as="geometry" />
        </mxCell>
        <mxCell id="5KuGOnc_hFSbMWcKj4Z0-33" value="" style="edgeStyle=orthogonalEdgeStyle;rounded=0;orthogonalLoop=1;jettySize=auto;html=1;entryX=1;entryY=0.5;entryDx=0;entryDy=0;" parent="1" source="5KuGOnc_hFSbMWcKj4Z0-8" target="H4_FO-z_CIzUtnuDq0nZ-1" edge="1">
          <mxGeometry relative="1" as="geometry" />
        </mxCell>
        <mxCell id="5KuGOnc_hFSbMWcKj4Z0-8" value="Power amplifier&lt;div&gt;(N0039 ERAM-0.01-1G-2W)&lt;/div&gt;" style="rounded=0;whiteSpace=wrap;html=1;fillColor=#dae8fc;strokeColor=#6c8ebf;" parent="1" vertex="1">
          <mxGeometry x="-310" y="450" width="120" height="60" as="geometry" />
        </mxCell>
        <mxCell id="5KuGOnc_hFSbMWcKj4Z0-9" value="antenna1,2,3" style="rounded=0;whiteSpace=wrap;html=1;fillColor=#dae8fc;strokeColor=#6c8ebf;" parent="1" vertex="1">
          <mxGeometry x="-450" y="530" width="120" height="60" as="geometry" />
        </mxCell>
        <mxCell id="5KuGOnc_hFSbMWcKj4Z0-41" style="edgeStyle=orthogonalEdgeStyle;rounded=0;orthogonalLoop=1;jettySize=auto;html=1;" parent="1" source="5KuGOnc_hFSbMWcKj4Z0-10" target="5KuGOnc_hFSbMWcKj4Z0-21" edge="1">
          <mxGeometry relative="1" as="geometry" />
        </mxCell>
        <mxCell id="5KuGOnc_hFSbMWcKj4Z0-45" value="UARTx1" style="edgeLabel;html=1;align=center;verticalAlign=middle;resizable=0;points=[];" parent="5KuGOnc_hFSbMWcKj4Z0-41" vertex="1" connectable="0">
          <mxGeometry x="0.5754" y="1" relative="1" as="geometry">
            <mxPoint as="offset" />
          </mxGeometry>
        </mxCell>
        <mxCell id="5KuGOnc_hFSbMWcKj4Z0-43" style="edgeStyle=orthogonalEdgeStyle;rounded=0;orthogonalLoop=1;jettySize=auto;html=1;exitX=0.25;exitY=1;exitDx=0;exitDy=0;entryX=0.25;entryY=0;entryDx=0;entryDy=0;" parent="1" source="5KuGOnc_hFSbMWcKj4Z0-10" target="5KuGOnc_hFSbMWcKj4Z0-21" edge="1">
          <mxGeometry relative="1" as="geometry" />
        </mxCell>
        <mxCell id="5KuGOnc_hFSbMWcKj4Z0-44" value="DIOx4" style="edgeLabel;html=1;align=center;verticalAlign=middle;resizable=0;points=[];" parent="5KuGOnc_hFSbMWcKj4Z0-43" vertex="1" connectable="0">
          <mxGeometry x="0.5899" relative="1" as="geometry">
            <mxPoint y="17" as="offset" />
          </mxGeometry>
        </mxCell>
        <mxCell id="h8pYUHLmgL-gSPW0kfH1-5" style="edgeStyle=orthogonalEdgeStyle;rounded=0;orthogonalLoop=1;jettySize=auto;html=1;exitX=0.75;exitY=1;exitDx=0;exitDy=0;entryX=0.5;entryY=0;entryDx=0;entryDy=0;startArrow=classic;startFill=1;" parent="1" source="5KuGOnc_hFSbMWcKj4Z0-10" target="h8pYUHLmgL-gSPW0kfH1-1" edge="1">
          <mxGeometry relative="1" as="geometry" />
        </mxCell>
        <mxCell id="h8pYUHLmgL-gSPW0kfH1-9" value="CAN" style="edgeLabel;html=1;align=center;verticalAlign=middle;resizable=0;points=[];" parent="h8pYUHLmgL-gSPW0kfH1-5" vertex="1" connectable="0">
          <mxGeometry x="0.7683" relative="1" as="geometry">
            <mxPoint as="offset" />
          </mxGeometry>
        </mxCell>
        <mxCell id="kcb4N6s0-IAfHg9QK9hZ-2" style="edgeStyle=orthogonalEdgeStyle;rounded=0;orthogonalLoop=1;jettySize=auto;html=1;entryX=0.5;entryY=0;entryDx=0;entryDy=0;" parent="1" source="5KuGOnc_hFSbMWcKj4Z0-10" target="kcb4N6s0-IAfHg9QK9hZ-1" edge="1">
          <mxGeometry relative="1" as="geometry">
            <Array as="points">
              <mxPoint x="50" y="440" />
              <mxPoint x="-100" y="440" />
            </Array>
          </mxGeometry>
        </mxCell>
        <mxCell id="kcb4N6s0-IAfHg9QK9hZ-3" value="UART" style="edgeLabel;html=1;align=center;verticalAlign=middle;resizable=0;points=[];" parent="kcb4N6s0-IAfHg9QK9hZ-2" vertex="1" connectable="0">
          <mxGeometry x="0.7649" relative="1" as="geometry">
            <mxPoint y="-11" as="offset" />
          </mxGeometry>
        </mxCell>
        <mxCell id="5KuGOnc_hFSbMWcKj4Z0-10" value="MCU&lt;div&gt;(STM32F429ZIT6)&lt;/div&gt;" style="rounded=0;whiteSpace=wrap;html=1;fillColor=#d5e8d4;strokeColor=#82b366;" parent="1" vertex="1">
          <mxGeometry x="40" y="270" width="120" height="60" as="geometry" />
        </mxCell>
        <mxCell id="5KuGOnc_hFSbMWcKj4Z0-14" style="edgeStyle=orthogonalEdgeStyle;rounded=0;orthogonalLoop=1;jettySize=auto;html=1;entryX=0.75;entryY=0;entryDx=0;entryDy=0;startArrow=classic;startFill=1;" parent="1" source="5KuGOnc_hFSbMWcKj4Z0-13" target="5KuGOnc_hFSbMWcKj4Z0-10" edge="1">
          <mxGeometry relative="1" as="geometry" />
        </mxCell>
        <mxCell id="5KuGOnc_hFSbMWcKj4Z0-15" value="CAN" style="edgeLabel;html=1;align=center;verticalAlign=middle;resizable=0;points=[];" parent="5KuGOnc_hFSbMWcKj4Z0-14" vertex="1" connectable="0">
          <mxGeometry x="-0.0382" relative="1" as="geometry">
            <mxPoint x="-1" as="offset" />
          </mxGeometry>
        </mxCell>
        <mxCell id="5KuGOnc_hFSbMWcKj4Z0-13" value="Servo reducer&lt;div&gt;(SGER6025-3165)&lt;/div&gt;" style="rounded=0;whiteSpace=wrap;html=1;fillColor=#dae8fc;strokeColor=#6c8ebf;" parent="1" vertex="1">
          <mxGeometry x="-310" y="90" width="120" height="60" as="geometry" />
        </mxCell>
        <mxCell id="5KuGOnc_hFSbMWcKj4Z0-28" style="edgeStyle=orthogonalEdgeStyle;rounded=0;orthogonalLoop=1;jettySize=auto;html=1;entryX=1;entryY=0.5;entryDx=0;entryDy=0;strokeColor=#FF0000;" parent="1" source="5KuGOnc_hFSbMWcKj4Z0-18" target="5KuGOnc_hFSbMWcKj4Z0-23" edge="1">
          <mxGeometry relative="1" as="geometry" />
        </mxCell>
        <mxCell id="h8pYUHLmgL-gSPW0kfH1-7" style="edgeStyle=orthogonalEdgeStyle;rounded=0;orthogonalLoop=1;jettySize=auto;html=1;exitX=0;exitY=0.5;exitDx=0;exitDy=0;entryX=1;entryY=0.5;entryDx=0;entryDy=0;strokeColor=#FF0000;startArrow=classic;startFill=1;endArrow=none;endFill=0;exitPerimeter=0;" parent="1" source="nvCGQVXElXJrUlTqSnAw-11" target="h8pYUHLmgL-gSPW0kfH1-1" edge="1">
          <mxGeometry relative="1" as="geometry">
            <Array as="points">
              <mxPoint x="483" y="590" />
            </Array>
          </mxGeometry>
        </mxCell>
        <mxCell id="f2lY91EElbN7lzYzNMs4-10" style="edgeStyle=orthogonalEdgeStyle;rounded=0;orthogonalLoop=1;jettySize=auto;html=1;exitX=0;exitY=0.5;exitDx=0;exitDy=0;strokeColor=#FF0000;entryX=0;entryY=0.333;entryDx=0;entryDy=0;entryPerimeter=0;" parent="1" target="f2lY91EElbN7lzYzNMs4-8" edge="1">
          <mxGeometry relative="1" as="geometry">
            <Array as="points">
              <mxPoint x="340" y="299" />
              <mxPoint x="340" y="350" />
            </Array>
            <mxPoint x="360" y="299" as="sourcePoint" />
            <mxPoint x="640" y="350" as="targetPoint" />
          </mxGeometry>
        </mxCell>
        <mxCell id="5KuGOnc_hFSbMWcKj4Z0-18" value="Battery 7.4V&lt;div&gt;(3450mAh)&lt;/div&gt;" style="rounded=0;whiteSpace=wrap;html=1;fillColor=#f8cecc;strokeColor=#b85450;" parent="1" vertex="1">
          <mxGeometry x="360" y="270" width="120" height="60" as="geometry" />
        </mxCell>
        <mxCell id="5KuGOnc_hFSbMWcKj4Z0-20" style="edgeStyle=orthogonalEdgeStyle;rounded=0;orthogonalLoop=1;jettySize=auto;html=1;entryX=1;entryY=0.5;entryDx=0;entryDy=0;strokeColor=#FF0000;exitX=0.5;exitY=1;exitDx=0;exitDy=0;" parent="1" source="5KuGOnc_hFSbMWcKj4Z0-19" target="5KuGOnc_hFSbMWcKj4Z0-8" edge="1">
          <mxGeometry relative="1" as="geometry">
            <mxPoint x="30" y="480" as="sourcePoint" />
            <Array as="points">
              <mxPoint x="420" y="480" />
            </Array>
          </mxGeometry>
        </mxCell>
        <mxCell id="5KuGOnc_hFSbMWcKj4Z0-51" value="14.8V" style="edgeLabel;html=1;align=center;verticalAlign=middle;resizable=0;points=[];" parent="5KuGOnc_hFSbMWcKj4Z0-20" vertex="1" connectable="0">
          <mxGeometry x="0.6826" y="-1" relative="1" as="geometry">
            <mxPoint x="13" y="1" as="offset" />
          </mxGeometry>
        </mxCell>
        <mxCell id="h8pYUHLmgL-gSPW0kfH1-6" style="edgeStyle=orthogonalEdgeStyle;rounded=0;orthogonalLoop=1;jettySize=auto;html=1;entryX=1;entryY=0.25;entryDx=0;entryDy=0;strokeColor=#FF0000;startArrow=classic;startFill=1;endArrow=none;endFill=0;exitX=0;exitY=0.5;exitDx=0;exitDy=0;exitPerimeter=0;" parent="1" source="nvCGQVXElXJrUlTqSnAw-8" target="h8pYUHLmgL-gSPW0kfH1-1" edge="1">
          <mxGeometry relative="1" as="geometry">
            <Array as="points">
              <mxPoint x="420" y="575" />
            </Array>
            <mxPoint x="420" y="570" as="sourcePoint" />
          </mxGeometry>
        </mxCell>
        <mxCell id="f2lY91EElbN7lzYzNMs4-16" style="edgeStyle=orthogonalEdgeStyle;rounded=0;orthogonalLoop=1;jettySize=auto;html=1;exitX=0.5;exitY=1;exitDx=0;exitDy=0;entryX=0;entryY=0.75;entryDx=0;entryDy=0;strokeColor=#FF0000;" parent="1" source="5KuGOnc_hFSbMWcKj4Z0-19" target="f2lY91EElbN7lzYzNMs4-8" edge="1">
          <mxGeometry relative="1" as="geometry" />
        </mxCell>
        <mxCell id="5KuGOnc_hFSbMWcKj4Z0-19" value="Battery 14.8V&lt;div&gt;(3450mAh)&lt;/div&gt;" style="rounded=0;whiteSpace=wrap;html=1;fillColor=#f8cecc;strokeColor=#b85450;" parent="1" vertex="1">
          <mxGeometry x="360" y="360" width="120" height="60" as="geometry" />
        </mxCell>
        <mxCell id="5KuGOnc_hFSbMWcKj4Z0-21" value="Spare" style="rounded=0;whiteSpace=wrap;html=1;fillColor=#dae8fc;strokeColor=#6c8ebf;" parent="1" vertex="1">
          <mxGeometry x="40" y="560" width="120" height="60" as="geometry" />
        </mxCell>
        <mxCell id="5KuGOnc_hFSbMWcKj4Z0-25" value="" style="edgeStyle=orthogonalEdgeStyle;rounded=0;orthogonalLoop=1;jettySize=auto;html=1;strokeColor=#FF0000;exitX=0;exitY=0.5;exitDx=0;exitDy=0;" parent="1" source="5KuGOnc_hFSbMWcKj4Z0-24" target="5KuGOnc_hFSbMWcKj4Z0-10" edge="1">
          <mxGeometry relative="1" as="geometry" />
        </mxCell>
        <mxCell id="5KuGOnc_hFSbMWcKj4Z0-29" value="" style="edgeStyle=orthogonalEdgeStyle;rounded=0;orthogonalLoop=1;jettySize=auto;html=1;strokeColor=#FF0000;" parent="1" source="5KuGOnc_hFSbMWcKj4Z0-23" target="5KuGOnc_hFSbMWcKj4Z0-24" edge="1">
          <mxGeometry relative="1" as="geometry" />
        </mxCell>
        <mxCell id="5KuGOnc_hFSbMWcKj4Z0-35" style="edgeStyle=orthogonalEdgeStyle;rounded=0;orthogonalLoop=1;jettySize=auto;html=1;exitX=0.5;exitY=0;exitDx=0;exitDy=0;entryX=1;entryY=0.25;entryDx=0;entryDy=0;strokeColor=#FF0000;" parent="1" source="5KuGOnc_hFSbMWcKj4Z0-23" target="5KuGOnc_hFSbMWcKj4Z0-2" edge="1">
          <mxGeometry relative="1" as="geometry" />
        </mxCell>
        <mxCell id="5KuGOnc_hFSbMWcKj4Z0-38" value="5V" style="edgeLabel;html=1;align=center;verticalAlign=middle;resizable=0;points=[];" parent="5KuGOnc_hFSbMWcKj4Z0-35" vertex="1" connectable="0">
          <mxGeometry x="0.5327" y="-2" relative="1" as="geometry">
            <mxPoint as="offset" />
          </mxGeometry>
        </mxCell>
        <mxCell id="5KuGOnc_hFSbMWcKj4Z0-23" value="DCDC 7.4V-&amp;gt;5V" style="rounded=0;whiteSpace=wrap;html=1;fillColor=#ffe6cc;strokeColor=#d79b00;" parent="1" vertex="1">
          <mxGeometry x="180" y="270" width="120" height="60" as="geometry" />
        </mxCell>
        <mxCell id="5KuGOnc_hFSbMWcKj4Z0-30" style="edgeStyle=orthogonalEdgeStyle;rounded=0;orthogonalLoop=1;jettySize=auto;html=1;entryX=1;entryY=0.75;entryDx=0;entryDy=0;strokeColor=#FF0000;" parent="1" source="5KuGOnc_hFSbMWcKj4Z0-24" target="5KuGOnc_hFSbMWcKj4Z0-3" edge="1">
          <mxGeometry relative="1" as="geometry" />
        </mxCell>
        <mxCell id="5KuGOnc_hFSbMWcKj4Z0-36" value="3.3V" style="edgeLabel;html=1;align=center;verticalAlign=middle;resizable=0;points=[];" parent="5KuGOnc_hFSbMWcKj4Z0-30" vertex="1" connectable="0">
          <mxGeometry x="0.4575" y="-1" relative="1" as="geometry">
            <mxPoint y="1" as="offset" />
          </mxGeometry>
        </mxCell>
        <mxCell id="5KuGOnc_hFSbMWcKj4Z0-34" style="edgeStyle=orthogonalEdgeStyle;rounded=0;orthogonalLoop=1;jettySize=auto;html=1;exitX=0;exitY=0.5;exitDx=0;exitDy=0;entryX=1;entryY=0.75;entryDx=0;entryDy=0;strokeColor=#FF0000;" parent="1" source="5KuGOnc_hFSbMWcKj4Z0-24" target="5KuGOnc_hFSbMWcKj4Z0-2" edge="1">
          <mxGeometry relative="1" as="geometry" />
        </mxCell>
        <mxCell id="5KuGOnc_hFSbMWcKj4Z0-37" value="3.3V" style="edgeLabel;html=1;align=center;verticalAlign=middle;resizable=0;points=[];" parent="5KuGOnc_hFSbMWcKj4Z0-34" vertex="1" connectable="0">
          <mxGeometry x="0.5505" y="-1" relative="1" as="geometry">
            <mxPoint y="1" as="offset" />
          </mxGeometry>
        </mxCell>
        <mxCell id="5KuGOnc_hFSbMWcKj4Z0-24" value="LDO 5V-&amp;gt;3.3V" style="rounded=0;whiteSpace=wrap;html=1;fillColor=#ffe6cc;strokeColor=#d79b00;" parent="1" vertex="1">
          <mxGeometry x="180" y="350" width="120" height="60" as="geometry" />
        </mxCell>
        <mxCell id="5KuGOnc_hFSbMWcKj4Z0-49" style="edgeStyle=orthogonalEdgeStyle;rounded=0;orthogonalLoop=1;jettySize=auto;html=1;exitX=0;exitY=0.5;exitDx=0;exitDy=0;entryX=1;entryY=0.25;entryDx=0;entryDy=0;strokeColor=#FF0000;" parent="1" source="5KuGOnc_hFSbMWcKj4Z0-26" target="5KuGOnc_hFSbMWcKj4Z0-13" edge="1">
          <mxGeometry relative="1" as="geometry">
            <Array as="points">
              <mxPoint x="340" y="210" />
              <mxPoint x="340" y="105" />
            </Array>
          </mxGeometry>
        </mxCell>
        <mxCell id="h8pYUHLmgL-gSPW0kfH1-8" style="edgeStyle=orthogonalEdgeStyle;rounded=0;orthogonalLoop=1;jettySize=auto;html=1;exitX=0;exitY=0.5;exitDx=0;exitDy=0;entryX=1;entryY=0.75;entryDx=0;entryDy=0;strokeColor=#FF0000;startArrow=classic;startFill=1;endArrow=none;endFill=0;exitPerimeter=0;" parent="1" source="nvCGQVXElXJrUlTqSnAw-15" target="h8pYUHLmgL-gSPW0kfH1-1" edge="1">
          <mxGeometry relative="1" as="geometry">
            <Array as="points">
              <mxPoint x="523" y="605" />
            </Array>
          </mxGeometry>
        </mxCell>
        <mxCell id="5KuGOnc_hFSbMWcKj4Z0-26" value="Battery 25.9V&lt;div&gt;(3450mAh)&lt;/div&gt;" style="rounded=0;whiteSpace=wrap;html=1;fillColor=#f8cecc;strokeColor=#b85450;" parent="1" vertex="1">
          <mxGeometry x="360" y="180" width="120" height="60" as="geometry" />
        </mxCell>
        <mxCell id="H4_FO-z_CIzUtnuDq0nZ-2" value="" style="edgeStyle=orthogonalEdgeStyle;rounded=0;orthogonalLoop=1;jettySize=auto;html=1;" parent="1" source="H4_FO-z_CIzUtnuDq0nZ-1" target="5KuGOnc_hFSbMWcKj4Z0-9" edge="1">
          <mxGeometry relative="1" as="geometry" />
        </mxCell>
        <mxCell id="H4_FO-z_CIzUtnuDq0nZ-1" value="Signal Splitter" style="rounded=0;whiteSpace=wrap;html=1;fillColor=#dae8fc;strokeColor=#6c8ebf;" parent="1" vertex="1">
          <mxGeometry x="-450" y="450" width="120" height="60" as="geometry" />
        </mxCell>
        <mxCell id="h8pYUHLmgL-gSPW0kfH1-1" value="EGSE" style="rounded=0;whiteSpace=wrap;html=1;fillColor=#e1d5e7;strokeColor=#9673a6;" parent="1" vertex="1">
          <mxGeometry x="240" y="560" width="120" height="60" as="geometry" />
        </mxCell>
        <mxCell id="kcb4N6s0-IAfHg9QK9hZ-5" style="edgeStyle=orthogonalEdgeStyle;rounded=0;orthogonalLoop=1;jettySize=auto;html=1;entryX=0.5;entryY=0;entryDx=0;entryDy=0;entryPerimeter=0;" parent="1" source="kcb4N6s0-IAfHg9QK9hZ-1" target="kcb4N6s0-IAfHg9QK9hZ-6" edge="1">
          <mxGeometry relative="1" as="geometry">
            <mxPoint x="-100" y="650" as="targetPoint" />
          </mxGeometry>
        </mxCell>
        <mxCell id="kcb4N6s0-IAfHg9QK9hZ-1" value="TTLtoUSB" style="rounded=0;whiteSpace=wrap;html=1;fillColor=#dae8fc;strokeColor=#6c8ebf;" parent="1" vertex="1">
          <mxGeometry x="-160" y="510" width="120" height="60" as="geometry" />
        </mxCell>
        <mxCell id="kcb4N6s0-IAfHg9QK9hZ-6" value="PC" style="rounded=0;whiteSpace=wrap;html=1;fillColor=#dae8fc;strokeColor=#6c8ebf;" parent="1" vertex="1">
          <mxGeometry x="-160" y="590" width="120" height="60" as="geometry" />
        </mxCell>
        <mxCell id="kcb4N6s0-IAfHg9QK9hZ-7" value="25.9V" style="edgeLabel;html=1;align=center;verticalAlign=middle;resizable=0;points=[];" parent="1" vertex="1" connectable="0">
          <mxGeometry x="-76.66666666666652" y="105" as="geometry" />
        </mxCell>
        <mxCell id="71prFD1cK3j_XnMRIYUT-8" value="" style="edgeStyle=orthogonalEdgeStyle;rounded=0;orthogonalLoop=1;jettySize=auto;html=1;startArrow=classic;startFill=1;" parent="1" source="71prFD1cK3j_XnMRIYUT-2" target="71prFD1cK3j_XnMRIYUT-3" edge="1">
          <mxGeometry relative="1" as="geometry" />
        </mxCell>
        <mxCell id="71prFD1cK3j_XnMRIYUT-2" value="PC" style="rounded=0;whiteSpace=wrap;html=1;fillColor=#dae8fc;strokeColor=#6c8ebf;" parent="1" vertex="1">
          <mxGeometry x="-210" y="830" width="120" height="60" as="geometry" />
        </mxCell>
        <mxCell id="71prFD1cK3j_XnMRIYUT-7" value="" style="edgeStyle=orthogonalEdgeStyle;rounded=0;orthogonalLoop=1;jettySize=auto;html=1;startArrow=classic;startFill=1;" parent="1" source="71prFD1cK3j_XnMRIYUT-3" target="71prFD1cK3j_XnMRIYUT-4" edge="1">
          <mxGeometry relative="1" as="geometry" />
        </mxCell>
        <mxCell id="71prFD1cK3j_XnMRIYUT-3" value="Arduino&lt;div&gt;(Due)&lt;/div&gt;" style="rounded=0;whiteSpace=wrap;html=1;fillColor=#dae8fc;strokeColor=#6c8ebf;" parent="1" vertex="1">
          <mxGeometry x="-60" y="830" width="120" height="60" as="geometry" />
        </mxCell>
        <mxCell id="71prFD1cK3j_XnMRIYUT-10" style="edgeStyle=orthogonalEdgeStyle;rounded=0;orthogonalLoop=1;jettySize=auto;html=1;entryX=0;entryY=0.5;entryDx=0;entryDy=0;dashed=1;" parent="1" source="71prFD1cK3j_XnMRIYUT-4" target="71prFD1cK3j_XnMRIYUT-9" edge="1">
          <mxGeometry relative="1" as="geometry" />
        </mxCell>
        <mxCell id="71prFD1cK3j_XnMRIYUT-4" value="LoRa&lt;div&gt;(SX1276RF1JAS)&lt;/div&gt;" style="rounded=0;whiteSpace=wrap;html=1;fillColor=#dae8fc;strokeColor=#6c8ebf;" parent="1" vertex="1">
          <mxGeometry x="83.33" y="830" width="120" height="60" as="geometry" />
        </mxCell>
        <mxCell id="71prFD1cK3j_XnMRIYUT-13" value="" style="edgeStyle=orthogonalEdgeStyle;rounded=0;orthogonalLoop=1;jettySize=auto;html=1;" parent="1" source="71prFD1cK3j_XnMRIYUT-5" target="71prFD1cK3j_XnMRIYUT-4" edge="1">
          <mxGeometry relative="1" as="geometry" />
        </mxCell>
        <mxCell id="71prFD1cK3j_XnMRIYUT-5" value="Yagi antenna&lt;div&gt;(OSCAR44/0.3M)&lt;/div&gt;" style="rounded=0;whiteSpace=wrap;html=1;fillColor=#dae8fc;strokeColor=#6c8ebf;" parent="1" vertex="1">
          <mxGeometry x="270" y="830" width="120" height="60" as="geometry" />
        </mxCell>
        <mxCell id="71prFD1cK3j_XnMRIYUT-11" style="edgeStyle=orthogonalEdgeStyle;rounded=0;orthogonalLoop=1;jettySize=auto;html=1;entryX=0;entryY=0.5;entryDx=0;entryDy=0;dashed=1;" parent="1" source="71prFD1cK3j_XnMRIYUT-9" target="71prFD1cK3j_XnMRIYUT-5" edge="1">
          <mxGeometry relative="1" as="geometry" />
        </mxCell>
        <mxCell id="71prFD1cK3j_XnMRIYUT-9" value="PA&lt;div&gt;(KDT700MPA-035)&lt;/div&gt;" style="rounded=0;whiteSpace=wrap;html=1;fillColor=#dae8fc;strokeColor=#6c8ebf;" parent="1" vertex="1">
          <mxGeometry x="170" y="910" width="120" height="60" as="geometry" />
        </mxCell>
        <mxCell id="tgBkDLwzaqqVzteGjHyz-2" style="edgeStyle=orthogonalEdgeStyle;rounded=0;orthogonalLoop=1;jettySize=auto;html=1;entryX=0;entryY=0.75;entryDx=0;entryDy=0;strokeColor=#FF0000;" parent="1" source="tgBkDLwzaqqVzteGjHyz-1" target="71prFD1cK3j_XnMRIYUT-9" edge="1">
          <mxGeometry relative="1" as="geometry" />
        </mxCell>
        <mxCell id="tgBkDLwzaqqVzteGjHyz-1" value="Battery&amp;nbsp;&lt;div&gt;(14.8V)&lt;/div&gt;" style="rounded=0;whiteSpace=wrap;html=1;fillColor=#f8cecc;strokeColor=#b85450;" parent="1" vertex="1">
          <mxGeometry x="-50" y="925" width="120" height="60" as="geometry" />
        </mxCell>
        <mxCell id="f2lY91EElbN7lzYzNMs4-1" value="DAQ box" style="rounded=0;whiteSpace=wrap;html=1;labelPosition=left;verticalLabelPosition=top;align=right;verticalAlign=bottom;" parent="1" vertex="1">
          <mxGeometry x="620" y="550" width="230" height="160" as="geometry" />
        </mxCell>
        <mxCell id="f2lY91EElbN7lzYzNMs4-4" style="edgeStyle=orthogonalEdgeStyle;rounded=0;orthogonalLoop=1;jettySize=auto;html=1;exitX=0.25;exitY=1;exitDx=0;exitDy=0;entryX=0.922;entryY=0.957;entryDx=0;entryDy=0;entryPerimeter=0;" parent="1" source="f2lY91EElbN7lzYzNMs4-3" target="5KuGOnc_hFSbMWcKj4Z0-10" edge="1">
          <mxGeometry relative="1" as="geometry">
            <mxPoint x="150" y="340" as="targetPoint" />
            <Array as="points">
              <mxPoint x="710" y="650" />
              <mxPoint x="151" y="650" />
            </Array>
          </mxGeometry>
        </mxCell>
        <mxCell id="f2lY91EElbN7lzYzNMs4-5" value="SPI" style="edgeLabel;html=1;align=center;verticalAlign=middle;resizable=0;points=[];" parent="f2lY91EElbN7lzYzNMs4-4" vertex="1" connectable="0">
          <mxGeometry x="-0.2576" y="2" relative="1" as="geometry">
            <mxPoint x="-1" as="offset" />
          </mxGeometry>
        </mxCell>
        <mxCell id="f2lY91EElbN7lzYzNMs4-6" style="edgeStyle=orthogonalEdgeStyle;rounded=0;orthogonalLoop=1;jettySize=auto;html=1;exitX=0.75;exitY=1;exitDx=0;exitDy=0;strokeColor=#FF0000;entryX=0;entryY=0.5;entryDx=0;entryDy=0;startArrow=classic;startFill=1;endArrow=none;endFill=0;" parent="1" source="f2lY91EElbN7lzYzNMs4-3" target="5KuGOnc_hFSbMWcKj4Z0-23" edge="1">
          <mxGeometry relative="1" as="geometry">
            <mxPoint x="620" y="740" as="targetPoint" />
            <Array as="points">
              <mxPoint x="770" y="680" />
              <mxPoint x="170" y="680" />
              <mxPoint x="170" y="300" />
            </Array>
          </mxGeometry>
        </mxCell>
        <mxCell id="f2lY91EElbN7lzYzNMs4-7" value="5V" style="edgeLabel;html=1;align=center;verticalAlign=middle;resizable=0;points=[];" parent="f2lY91EElbN7lzYzNMs4-6" vertex="1" connectable="0">
          <mxGeometry x="-0.1149" y="1" relative="1" as="geometry">
            <mxPoint as="offset" />
          </mxGeometry>
        </mxCell>
        <mxCell id="f2lY91EElbN7lzYzNMs4-3" value="SD card module" style="rounded=0;whiteSpace=wrap;html=1;fillColor=#dae8fc;strokeColor=#6c8ebf;" parent="1" vertex="1">
          <mxGeometry x="680" y="570" width="120" height="60" as="geometry" />
        </mxCell>
        <mxCell id="f2lY91EElbN7lzYzNMs4-8" value="Power sensor" style="rounded=0;whiteSpace=wrap;html=1;fillColor=#dae8fc;strokeColor=#6c8ebf;" parent="1" vertex="1">
          <mxGeometry x="660" y="330" width="120" height="60" as="geometry" />
        </mxCell>
        <mxCell id="f2lY91EElbN7lzYzNMs4-9" value="temperature sensor" style="rounded=0;whiteSpace=wrap;html=1;fillColor=#dae8fc;strokeColor=#6c8ebf;" parent="1" vertex="1">
          <mxGeometry x="660" y="210" width="120" height="60" as="geometry" />
        </mxCell>
        <mxCell id="f2lY91EElbN7lzYzNMs4-17" style="edgeStyle=orthogonalEdgeStyle;rounded=0;orthogonalLoop=1;jettySize=auto;html=1;exitX=0.608;exitY=0.033;exitDx=0;exitDy=0;entryX=1;entryY=0.25;entryDx=0;entryDy=0;strokeColor=#FF0000;exitPerimeter=0;" parent="1" source="5KuGOnc_hFSbMWcKj4Z0-23" target="f2lY91EElbN7lzYzNMs4-8" edge="1">
          <mxGeometry relative="1" as="geometry">
            <mxPoint x="880" y="325" as="sourcePoint" />
            <Array as="points">
              <mxPoint x="253" y="160" />
              <mxPoint x="820" y="160" />
              <mxPoint x="820" y="345" />
            </Array>
          </mxGeometry>
        </mxCell>
        <mxCell id="f2lY91EElbN7lzYzNMs4-18" value="5V" style="edgeLabel;html=1;align=center;verticalAlign=middle;resizable=0;points=[];" parent="f2lY91EElbN7lzYzNMs4-17" vertex="1" connectable="0">
          <mxGeometry x="0.1505" y="-1" relative="1" as="geometry">
            <mxPoint as="offset" />
          </mxGeometry>
        </mxCell>
        <mxCell id="f2lY91EElbN7lzYzNMs4-21" style="edgeStyle=orthogonalEdgeStyle;rounded=0;orthogonalLoop=1;jettySize=auto;html=1;entryX=1;entryY=0.75;entryDx=0;entryDy=0;" parent="1" target="f2lY91EElbN7lzYzNMs4-9" edge="1">
          <mxGeometry relative="1" as="geometry">
            <mxPoint x="150" y="270" as="sourcePoint" />
            <Array as="points">
              <mxPoint x="149" y="150" />
              <mxPoint x="800" y="150" />
              <mxPoint x="800" y="255" />
            </Array>
          </mxGeometry>
        </mxCell>
        <mxCell id="f2lY91EElbN7lzYzNMs4-22" value="ADC" style="edgeLabel;html=1;align=center;verticalAlign=middle;resizable=0;points=[];" parent="f2lY91EElbN7lzYzNMs4-21" vertex="1" connectable="0">
          <mxGeometry x="0.3891" y="1" relative="1" as="geometry">
            <mxPoint as="offset" />
          </mxGeometry>
        </mxCell>
        <mxCell id="f2lY91EElbN7lzYzNMs4-23" style="edgeStyle=orthogonalEdgeStyle;rounded=0;orthogonalLoop=1;jettySize=auto;html=1;strokeColor=#FF0000;exitX=0.75;exitY=0;exitDx=0;exitDy=0;" parent="1" source="5KuGOnc_hFSbMWcKj4Z0-23" edge="1">
          <mxGeometry relative="1" as="geometry">
            <mxPoint x="880" y="310" as="sourcePoint" />
            <mxPoint x="660" y="250" as="targetPoint" />
            <Array as="points">
              <mxPoint x="270" y="250" />
              <mxPoint x="660" y="250" />
            </Array>
          </mxGeometry>
        </mxCell>
        <mxCell id="f2lY91EElbN7lzYzNMs4-24" value="5V" style="edgeLabel;html=1;align=center;verticalAlign=middle;resizable=0;points=[];" parent="f2lY91EElbN7lzYzNMs4-23" vertex="1" connectable="0">
          <mxGeometry x="0.0118" y="-2" relative="1" as="geometry">
            <mxPoint as="offset" />
          </mxGeometry>
        </mxCell>
        <mxCell id="f2lY91EElbN7lzYzNMs4-19" style="edgeStyle=orthogonalEdgeStyle;rounded=0;orthogonalLoop=1;jettySize=auto;html=1;exitX=0.636;exitY=1.006;exitDx=0;exitDy=0;entryX=0.995;entryY=0.659;entryDx=0;entryDy=0;entryPerimeter=0;exitPerimeter=0;endArrow=classic;endFill=1;startArrow=classic;startFill=1;" parent="1" source="5KuGOnc_hFSbMWcKj4Z0-10" target="f2lY91EElbN7lzYzNMs4-8" edge="1">
          <mxGeometry relative="1" as="geometry">
            <mxPoint x="910" y="340" as="sourcePoint" />
            <Array as="points">
              <mxPoint x="116" y="460" />
              <mxPoint x="800" y="460" />
              <mxPoint x="800" y="370" />
            </Array>
          </mxGeometry>
        </mxCell>
        <mxCell id="f2lY91EElbN7lzYzNMs4-20" value="I2C" style="edgeLabel;html=1;align=center;verticalAlign=middle;resizable=0;points=[];" parent="f2lY91EElbN7lzYzNMs4-19" vertex="1" connectable="0">
          <mxGeometry x="0.0227" relative="1" as="geometry">
            <mxPoint x="141" as="offset" />
          </mxGeometry>
        </mxCell>
        <mxCell id="nvCGQVXElXJrUlTqSnAw-6" style="edgeStyle=orthogonalEdgeStyle;rounded=0;orthogonalLoop=1;jettySize=auto;html=1;exitX=0;exitY=0.5;exitDx=0;exitDy=0;entryX=1;entryY=0.5;entryDx=0;entryDy=0;" parent="1" source="nvCGQVXElXJrUlTqSnAw-1" target="nvCGQVXElXJrUlTqSnAw-3" edge="1">
          <mxGeometry relative="1" as="geometry" />
        </mxCell>
        <mxCell id="nvCGQVXElXJrUlTqSnAw-1" value="LoRa&lt;div&gt;(SX1276RF1JAS)&lt;/div&gt;" style="rounded=0;whiteSpace=wrap;html=1;fillColor=#dae8fc;strokeColor=#6c8ebf;" parent="1" vertex="1">
          <mxGeometry x="-310" y="280" width="120" height="60" as="geometry" />
        </mxCell>
        <mxCell id="nvCGQVXElXJrUlTqSnAw-2" value="antenna1,2,3" style="rounded=0;whiteSpace=wrap;html=1;fillColor=#dae8fc;strokeColor=#6c8ebf;" parent="1" vertex="1">
          <mxGeometry x="-450" y="360" width="120" height="60" as="geometry" />
        </mxCell>
        <mxCell id="nvCGQVXElXJrUlTqSnAw-7" style="edgeStyle=orthogonalEdgeStyle;rounded=0;orthogonalLoop=1;jettySize=auto;html=1;exitX=0.5;exitY=1;exitDx=0;exitDy=0;entryX=0.5;entryY=0;entryDx=0;entryDy=0;" parent="1" source="nvCGQVXElXJrUlTqSnAw-3" target="nvCGQVXElXJrUlTqSnAw-2" edge="1">
          <mxGeometry relative="1" as="geometry" />
        </mxCell>
        <mxCell id="nvCGQVXElXJrUlTqSnAw-3" value="Signal Splitter" style="rounded=0;whiteSpace=wrap;html=1;fillColor=#dae8fc;strokeColor=#6c8ebf;" parent="1" vertex="1">
          <mxGeometry x="-450" y="280" width="120" height="60" as="geometry" />
        </mxCell>
        <mxCell id="nvCGQVXElXJrUlTqSnAw-4" style="edgeStyle=orthogonalEdgeStyle;rounded=0;orthogonalLoop=1;jettySize=auto;html=1;entryX=0;entryY=0.25;entryDx=0;entryDy=0;startArrow=classic;startFill=1;exitX=1;exitY=0.5;exitDx=0;exitDy=0;" parent="1" source="nvCGQVXElXJrUlTqSnAw-1" target="5KuGOnc_hFSbMWcKj4Z0-10" edge="1">
          <mxGeometry relative="1" as="geometry">
            <mxPoint x="-180" y="400" as="sourcePoint" />
            <mxPoint x="50" y="325" as="targetPoint" />
          </mxGeometry>
        </mxCell>
        <mxCell id="nvCGQVXElXJrUlTqSnAw-5" value="SPI" style="edgeLabel;html=1;align=center;verticalAlign=middle;resizable=0;points=[];" parent="nvCGQVXElXJrUlTqSnAw-4" vertex="1" connectable="0">
          <mxGeometry x="0.04" relative="1" as="geometry">
            <mxPoint x="-1" as="offset" />
          </mxGeometry>
        </mxCell>
        <mxCell id="nvCGQVXElXJrUlTqSnAw-10" value="" style="edgeStyle=orthogonalEdgeStyle;rounded=0;orthogonalLoop=1;jettySize=auto;html=1;entryX=1;entryY=0.5;entryDx=0;entryDy=0;strokeColor=#FF0000;startArrow=classic;startFill=1;endArrow=none;endFill=0;exitX=0.5;exitY=1;exitDx=0;exitDy=0;entryPerimeter=0;" parent="1" source="5KuGOnc_hFSbMWcKj4Z0-19" target="nvCGQVXElXJrUlTqSnAw-8" edge="1">
          <mxGeometry relative="1" as="geometry">
            <Array as="points" />
            <mxPoint x="420" y="420" as="sourcePoint" />
            <mxPoint x="360" y="575" as="targetPoint" />
          </mxGeometry>
        </mxCell>
        <mxCell id="nvCGQVXElXJrUlTqSnAw-8" value="" style="pointerEvents=1;fillColor=strokeColor;verticalLabelPosition=bottom;shadow=0;dashed=0;align=center;html=1;verticalAlign=top;shape=mxgraph.electrical.diodes.diode;direction=north;" parent="1" vertex="1">
          <mxGeometry x="406.995" y="516.6650000000001" width="26" height="43.33" as="geometry" />
        </mxCell>
        <mxCell id="nvCGQVXElXJrUlTqSnAw-14" style="edgeStyle=orthogonalEdgeStyle;rounded=0;orthogonalLoop=1;jettySize=auto;html=1;exitX=1;exitY=0.5;exitDx=0;exitDy=0;exitPerimeter=0;entryX=1;entryY=0.5;entryDx=0;entryDy=0;strokeColor=#FF0000;" parent="1" source="nvCGQVXElXJrUlTqSnAw-11" target="5KuGOnc_hFSbMWcKj4Z0-23" edge="1">
          <mxGeometry relative="1" as="geometry">
            <Array as="points">
              <mxPoint x="483" y="350" />
              <mxPoint x="340" y="350" />
              <mxPoint x="340" y="300" />
            </Array>
          </mxGeometry>
        </mxCell>
        <mxCell id="nvCGQVXElXJrUlTqSnAw-11" value="" style="pointerEvents=1;fillColor=strokeColor;verticalLabelPosition=bottom;shadow=0;dashed=0;align=center;html=1;verticalAlign=top;shape=mxgraph.electrical.diodes.diode;direction=north;" parent="1" vertex="1">
          <mxGeometry x="470.005" y="518.335" width="26" height="43.33" as="geometry" />
        </mxCell>
        <mxCell id="nvCGQVXElXJrUlTqSnAw-17" style="edgeStyle=orthogonalEdgeStyle;rounded=0;orthogonalLoop=1;jettySize=auto;html=1;exitX=1;exitY=0.5;exitDx=0;exitDy=0;exitPerimeter=0;entryX=1;entryY=0.25;entryDx=0;entryDy=0;strokeColor=#FF0000;" parent="1" source="nvCGQVXElXJrUlTqSnAw-15" target="5KuGOnc_hFSbMWcKj4Z0-13" edge="1">
          <mxGeometry relative="1" as="geometry" />
        </mxCell>
        <mxCell id="nvCGQVXElXJrUlTqSnAw-15" value="" style="pointerEvents=1;fillColor=strokeColor;verticalLabelPosition=bottom;shadow=0;dashed=0;align=center;html=1;verticalAlign=top;shape=mxgraph.electrical.diodes.diode;direction=north;" parent="1" vertex="1">
          <mxGeometry x="510.005" y="516.6650000000001" width="26" height="43.33" as="geometry" />
        </mxCell>
      </root>
    </mxGraphModel>
  </diagram>
  <diagram id="0y4W5sLFU7zWaba_ydag" name="飛行程序圖">
    <mxGraphModel dx="1050" dy="621" grid="1" gridSize="10" guides="1" tooltips="1" connect="1" arrows="1" fold="1" page="1" pageScale="1" pageWidth="827" pageHeight="1169" math="1" shadow="0">
      <root>
        <mxCell id="0" />
        <mxCell id="1" parent="0" />
        <mxCell id="W9EhOBo04rdzl51ePowg-12" value="" style="rounded=0;html=1;jettySize=auto;orthogonalLoop=1;fontSize=16;endArrow=classic;endFill=1;strokeWidth=1;shadow=0;labelBackgroundColor=none;edgeStyle=orthogonalEdgeStyle;entryX=0.5;entryY=0;entryDx=0;entryDy=0;" parent="1" source="W9EhOBo04rdzl51ePowg-85" target="W9EhOBo04rdzl51ePowg-29" edge="1">
          <mxGeometry relative="1" as="geometry">
            <mxPoint x="220" y="170.0000000000001" as="targetPoint" />
          </mxGeometry>
        </mxCell>
        <mxCell id="W9EhOBo04rdzl51ePowg-13" value="yes" style="edgeLabel;html=1;align=center;verticalAlign=middle;resizable=0;points=[];fontSize=16;" parent="W9EhOBo04rdzl51ePowg-12" connectable="0" vertex="1">
          <mxGeometry x="0.5691" relative="1" as="geometry">
            <mxPoint y="-9" as="offset" />
          </mxGeometry>
        </mxCell>
        <mxCell id="W9EhOBo04rdzl51ePowg-14" value="Initialize paramters, peripheral of IMU,LoRa and motor" style="rounded=1;whiteSpace=wrap;html=1;fontSize=16;glass=0;strokeWidth=1;shadow=0;" parent="1" vertex="1">
          <mxGeometry x="150" y="40" width="140" height="80" as="geometry" />
        </mxCell>
        <mxCell id="W9EhOBo04rdzl51ePowg-29" value="Parse IMU data" style="rounded=0;whiteSpace=wrap;html=1;fontSize=16;" parent="1" vertex="1">
          <mxGeometry x="160" y="230" width="120" height="40" as="geometry" />
        </mxCell>
        <mxCell id="W9EhOBo04rdzl51ePowg-30" value="" style="edgeStyle=orthogonalEdgeStyle;rounded=0;orthogonalLoop=1;jettySize=auto;html=1;fontSize=16;exitX=0.5;exitY=1;exitDx=0;exitDy=0;" parent="1" source="W9EhOBo04rdzl51ePowg-29" target="W9EhOBo04rdzl51ePowg-38" edge="1">
          <mxGeometry relative="1" as="geometry">
            <mxPoint x="220" y="320" as="sourcePoint" />
          </mxGeometry>
        </mxCell>
        <mxCell id="W9EhOBo04rdzl51ePowg-32" value="" style="edgeStyle=orthogonalEdgeStyle;rounded=0;orthogonalLoop=1;jettySize=auto;html=1;fontSize=16;" parent="1" source="W9EhOBo04rdzl51ePowg-33" target="W9EhOBo04rdzl51ePowg-45" edge="1">
          <mxGeometry relative="1" as="geometry" />
        </mxCell>
        <mxCell id="W9EhOBo04rdzl51ePowg-33" value="get UTC time from IMU &amp;amp; calibrate stm32 RTC" style="rounded=0;whiteSpace=wrap;html=1;fontSize=16;" parent="1" vertex="1">
          <mxGeometry x="160" y="410" width="120" height="80" as="geometry" />
        </mxCell>
        <mxCell id="W9EhOBo04rdzl51ePowg-34" value="" style="edgeStyle=orthogonalEdgeStyle;rounded=0;orthogonalLoop=1;jettySize=auto;html=1;fontSize=16;" parent="1" source="W9EhOBo04rdzl51ePowg-38" target="W9EhOBo04rdzl51ePowg-33" edge="1">
          <mxGeometry relative="1" as="geometry" />
        </mxCell>
        <mxCell id="W9EhOBo04rdzl51ePowg-35" value="yes" style="edgeLabel;html=1;align=center;verticalAlign=middle;resizable=0;points=[];fontSize=16;" parent="W9EhOBo04rdzl51ePowg-34" connectable="0" vertex="1">
          <mxGeometry x="-0.6569" y="-1" relative="1" as="geometry">
            <mxPoint as="offset" />
          </mxGeometry>
        </mxCell>
        <mxCell id="W9EhOBo04rdzl51ePowg-36" style="edgeStyle=orthogonalEdgeStyle;rounded=0;orthogonalLoop=1;jettySize=auto;html=1;entryX=0.5;entryY=0;entryDx=0;entryDy=0;fontSize=16;" parent="1" source="W9EhOBo04rdzl51ePowg-38" target="W9EhOBo04rdzl51ePowg-40" edge="1">
          <mxGeometry relative="1" as="geometry" />
        </mxCell>
        <mxCell id="W9EhOBo04rdzl51ePowg-37" value="no" style="edgeLabel;html=1;align=center;verticalAlign=middle;resizable=0;points=[];fontSize=16;" parent="W9EhOBo04rdzl51ePowg-36" connectable="0" vertex="1">
          <mxGeometry x="-0.4957" y="2" relative="1" as="geometry">
            <mxPoint y="2" as="offset" />
          </mxGeometry>
        </mxCell>
        <mxCell id="W9EhOBo04rdzl51ePowg-38" value="if GNSS fixed" style="rhombus;whiteSpace=wrap;html=1;fontSize=16;" parent="1" vertex="1">
          <mxGeometry x="160" y="340" width="120" height="40" as="geometry" />
        </mxCell>
        <mxCell id="W9EhOBo04rdzl51ePowg-39" style="edgeStyle=orthogonalEdgeStyle;rounded=0;orthogonalLoop=1;jettySize=auto;html=1;exitX=0.5;exitY=1;exitDx=0;exitDy=0;entryX=0.5;entryY=0;entryDx=0;entryDy=0;fontSize=16;" parent="1" source="W9EhOBo04rdzl51ePowg-40" target="W9EhOBo04rdzl51ePowg-45" edge="1">
          <mxGeometry relative="1" as="geometry">
            <Array as="points">
              <mxPoint x="350" y="500" />
              <mxPoint x="220" y="500" />
            </Array>
          </mxGeometry>
        </mxCell>
        <mxCell id="W9EhOBo04rdzl51ePowg-40" value="get UTC time from Stm32" style="rounded=0;whiteSpace=wrap;html=1;fontSize=16;" parent="1" vertex="1">
          <mxGeometry x="290" y="440" width="120" height="40" as="geometry" />
        </mxCell>
        <mxCell id="W9EhOBo04rdzl51ePowg-41" value="" style="edgeStyle=orthogonalEdgeStyle;rounded=0;orthogonalLoop=1;jettySize=auto;html=1;entryX=0.5;entryY=0;entryDx=0;entryDy=0;fontSize=16;" parent="1" source="W9EhOBo04rdzl51ePowg-45" target="W9EhOBo04rdzl51ePowg-76" edge="1">
          <mxGeometry relative="1" as="geometry" />
        </mxCell>
        <mxCell id="W9EhOBo04rdzl51ePowg-42" value="yes" style="edgeLabel;html=1;align=center;verticalAlign=middle;resizable=0;points=[];fontSize=16;" parent="W9EhOBo04rdzl51ePowg-41" connectable="0" vertex="1">
          <mxGeometry x="-0.624" y="-1" relative="1" as="geometry">
            <mxPoint as="offset" />
          </mxGeometry>
        </mxCell>
        <mxCell id="W9EhOBo04rdzl51ePowg-43" style="edgeStyle=orthogonalEdgeStyle;rounded=0;orthogonalLoop=1;jettySize=auto;html=1;entryX=0.5;entryY=0;entryDx=0;entryDy=0;fontSize=16;" parent="1" source="W9EhOBo04rdzl51ePowg-45" target="W9EhOBo04rdzl51ePowg-81" edge="1">
          <mxGeometry relative="1" as="geometry">
            <Array as="points">
              <mxPoint x="420" y="550" />
              <mxPoint x="420" y="100" />
              <mxPoint x="500" y="100" />
            </Array>
          </mxGeometry>
        </mxCell>
        <mxCell id="W9EhOBo04rdzl51ePowg-44" value="no" style="edgeLabel;html=1;align=center;verticalAlign=middle;resizable=0;points=[];fontSize=16;" parent="W9EhOBo04rdzl51ePowg-43" connectable="0" vertex="1">
          <mxGeometry x="-0.5711" relative="1" as="geometry">
            <mxPoint x="-120" y="27" as="offset" />
          </mxGeometry>
        </mxCell>
        <mxCell id="W9EhOBo04rdzl51ePowg-45" value="Fight trigger pin&lt;div style=&quot;font-size: 16px;&quot;&gt;high-&amp;gt;low&lt;/div&gt;" style="rhombus;whiteSpace=wrap;html=1;fontSize=16;" parent="1" vertex="1">
          <mxGeometry x="160" y="520" width="120" height="60" as="geometry" />
        </mxCell>
        <mxCell id="W9EhOBo04rdzl51ePowg-46" value="" style="edgeStyle=orthogonalEdgeStyle;rounded=0;orthogonalLoop=1;jettySize=auto;html=1;fontSize=16;" parent="1" source="W9EhOBo04rdzl51ePowg-103" target="W9EhOBo04rdzl51ePowg-49" edge="1">
          <mxGeometry relative="1" as="geometry" />
        </mxCell>
        <mxCell id="W9EhOBo04rdzl51ePowg-47" value="Read PA temp" style="rounded=0;whiteSpace=wrap;html=1;fontSize=16;" parent="1" vertex="1">
          <mxGeometry x="730" y="270" width="120" height="40" as="geometry" />
        </mxCell>
        <mxCell id="W9EhOBo04rdzl51ePowg-48" style="edgeStyle=orthogonalEdgeStyle;rounded=0;orthogonalLoop=1;jettySize=auto;html=1;entryX=1;entryY=0.5;entryDx=0;entryDy=0;fontSize=16;" parent="1" source="W9EhOBo04rdzl51ePowg-49" target="W9EhOBo04rdzl51ePowg-51" edge="1">
          <mxGeometry relative="1" as="geometry">
            <Array as="points">
              <mxPoint x="790" y="480" />
            </Array>
          </mxGeometry>
        </mxCell>
        <mxCell id="W9EhOBo04rdzl51ePowg-49" value="LoRa transmit" style="rounded=0;whiteSpace=wrap;html=1;fontSize=16;" parent="1" vertex="1">
          <mxGeometry x="730" y="420" width="120" height="40" as="geometry" />
        </mxCell>
        <mxCell id="W9EhOBo04rdzl51ePowg-50" value="" style="edgeStyle=orthogonalEdgeStyle;rounded=0;orthogonalLoop=1;jettySize=auto;html=1;fontSize=16;" parent="1" source="W9EhOBo04rdzl51ePowg-51" target="W9EhOBo04rdzl51ePowg-61" edge="1">
          <mxGeometry relative="1" as="geometry" />
        </mxCell>
        <mxCell id="W9EhOBo04rdzl51ePowg-51" value="LoRa receive" style="rounded=0;whiteSpace=wrap;html=1;fontSize=16;" parent="1" vertex="1">
          <mxGeometry x="594" y="460" width="120" height="40" as="geometry" />
        </mxCell>
        <mxCell id="W9EhOBo04rdzl51ePowg-52" value="" style="edgeStyle=orthogonalEdgeStyle;rounded=0;orthogonalLoop=1;jettySize=auto;html=1;fontSize=16;" parent="1" source="W9EhOBo04rdzl51ePowg-61" target="W9EhOBo04rdzl51ePowg-63" edge="1">
          <mxGeometry relative="1" as="geometry" />
        </mxCell>
        <mxCell id="W9EhOBo04rdzl51ePowg-53" value="receive_data == &#39;1&#39;" style="edgeLabel;html=1;align=center;verticalAlign=middle;resizable=0;points=[];fontSize=16;" parent="W9EhOBo04rdzl51ePowg-52" connectable="0" vertex="1">
          <mxGeometry x="0.5762" relative="1" as="geometry">
            <mxPoint y="-3" as="offset" />
          </mxGeometry>
        </mxCell>
        <mxCell id="W9EhOBo04rdzl51ePowg-54" style="edgeStyle=orthogonalEdgeStyle;rounded=0;orthogonalLoop=1;jettySize=auto;html=1;entryX=0.5;entryY=0;entryDx=0;entryDy=0;fontSize=16;" parent="1" source="W9EhOBo04rdzl51ePowg-61" target="W9EhOBo04rdzl51ePowg-65" edge="1">
          <mxGeometry relative="1" as="geometry" />
        </mxCell>
        <mxCell id="W9EhOBo04rdzl51ePowg-55" value="receive_data == &#39;4&#39;" style="edgeLabel;html=1;align=center;verticalAlign=middle;resizable=0;points=[];fontSize=16;" parent="W9EhOBo04rdzl51ePowg-54" connectable="0" vertex="1">
          <mxGeometry x="-0.5818" y="-1" relative="1" as="geometry">
            <mxPoint x="137" y="20" as="offset" />
          </mxGeometry>
        </mxCell>
        <mxCell id="W9EhOBo04rdzl51ePowg-56" style="edgeStyle=orthogonalEdgeStyle;rounded=0;orthogonalLoop=1;jettySize=auto;html=1;entryX=0.5;entryY=0;entryDx=0;entryDy=0;fontSize=16;" parent="1" source="W9EhOBo04rdzl51ePowg-61" target="W9EhOBo04rdzl51ePowg-74" edge="1">
          <mxGeometry relative="1" as="geometry" />
        </mxCell>
        <mxCell id="W9EhOBo04rdzl51ePowg-57" value="receive_data == &#39;2&#39;" style="edgeLabel;html=1;align=center;verticalAlign=middle;resizable=0;points=[];fontSize=16;" parent="W9EhOBo04rdzl51ePowg-56" connectable="0" vertex="1">
          <mxGeometry x="0.0117" y="-1" relative="1" as="geometry">
            <mxPoint x="-65" y="21" as="offset" />
          </mxGeometry>
        </mxCell>
        <mxCell id="W9EhOBo04rdzl51ePowg-58" style="edgeStyle=orthogonalEdgeStyle;rounded=0;orthogonalLoop=1;jettySize=auto;html=1;exitX=1;exitY=0.5;exitDx=0;exitDy=0;entryX=0;entryY=0.5;entryDx=0;entryDy=0;" parent="1" source="W9EhOBo04rdzl51ePowg-61" target="W9EhOBo04rdzl51ePowg-85" edge="1">
          <mxGeometry relative="1" as="geometry">
            <Array as="points">
              <mxPoint x="1020" y="535" />
              <mxPoint x="1020" y="680" />
              <mxPoint x="140" y="680" />
              <mxPoint x="140" y="170" />
            </Array>
          </mxGeometry>
        </mxCell>
        <mxCell id="W9EhOBo04rdzl51ePowg-120" value="no" style="edgeLabel;html=1;align=center;verticalAlign=middle;resizable=0;points=[];fontSize=16;" parent="W9EhOBo04rdzl51ePowg-58" vertex="1" connectable="0">
          <mxGeometry x="-0.9401" y="-1" relative="1" as="geometry">
            <mxPoint x="-35" y="-6" as="offset" />
          </mxGeometry>
        </mxCell>
        <mxCell id="W9EhOBo04rdzl51ePowg-60" style="edgeStyle=orthogonalEdgeStyle;rounded=0;orthogonalLoop=1;jettySize=auto;html=1;exitX=0.5;exitY=1;exitDx=0;exitDy=0;entryX=0.5;entryY=0;entryDx=0;entryDy=0;" parent="1" source="W9EhOBo04rdzl51ePowg-61" target="W9EhOBo04rdzl51ePowg-88" edge="1">
          <mxGeometry relative="1" as="geometry" />
        </mxCell>
        <mxCell id="W9EhOBo04rdzl51ePowg-121" value="yes" style="edgeLabel;html=1;align=center;verticalAlign=middle;resizable=0;points=[];fontSize=16;" parent="W9EhOBo04rdzl51ePowg-60" vertex="1" connectable="0">
          <mxGeometry x="-0.9133" y="-1" relative="1" as="geometry">
            <mxPoint as="offset" />
          </mxGeometry>
        </mxCell>
        <mxCell id="W9EhOBo04rdzl51ePowg-61" value="receive data" style="rhombus;whiteSpace=wrap;html=1;fontSize=16;" parent="1" vertex="1">
          <mxGeometry x="568" y="510" width="172" height="50" as="geometry" />
        </mxCell>
        <mxCell id="W9EhOBo04rdzl51ePowg-62" style="edgeStyle=orthogonalEdgeStyle;rounded=0;orthogonalLoop=1;jettySize=auto;html=1;exitX=0.5;exitY=1;exitDx=0;exitDy=0;fontSize=16;entryX=0;entryY=0.5;entryDx=0;entryDy=0;" parent="1" source="W9EhOBo04rdzl51ePowg-63" target="W9EhOBo04rdzl51ePowg-85" edge="1">
          <mxGeometry relative="1" as="geometry">
            <mxPoint x="160" y="190" as="targetPoint" />
            <Array as="points">
              <mxPoint x="654" y="680" />
              <mxPoint x="140" y="680" />
              <mxPoint x="140" y="170" />
            </Array>
          </mxGeometry>
        </mxCell>
        <mxCell id="W9EhOBo04rdzl51ePowg-63" value="reset rocket frame" style="rounded=0;whiteSpace=wrap;html=1;fontSize=16;" parent="1" vertex="1">
          <mxGeometry x="594" y="630" width="120" height="40" as="geometry" />
        </mxCell>
        <mxCell id="W9EhOBo04rdzl51ePowg-64" style="edgeStyle=orthogonalEdgeStyle;rounded=0;orthogonalLoop=1;jettySize=auto;html=1;entryX=0;entryY=0.5;entryDx=0;entryDy=0;fontSize=16;" parent="1" source="W9EhOBo04rdzl51ePowg-65" target="W9EhOBo04rdzl51ePowg-85" edge="1">
          <mxGeometry relative="1" as="geometry">
            <Array as="points">
              <mxPoint x="790" y="680" />
              <mxPoint x="140" y="680" />
              <mxPoint x="140" y="170" />
            </Array>
          </mxGeometry>
        </mxCell>
        <mxCell id="W9EhOBo04rdzl51ePowg-65" value="current mode= onFly" style="rounded=0;whiteSpace=wrap;html=1;fontSize=16;" parent="1" vertex="1">
          <mxGeometry x="730" y="630" width="120" height="40" as="geometry" />
        </mxCell>
        <mxCell id="W9EhOBo04rdzl51ePowg-66" style="edgeStyle=orthogonalEdgeStyle;rounded=0;orthogonalLoop=1;jettySize=auto;html=1;entryX=0;entryY=0.5;entryDx=0;entryDy=0;exitX=0.5;exitY=1;exitDx=0;exitDy=0;fontSize=16;" parent="1" source="W9EhOBo04rdzl51ePowg-67" target="W9EhOBo04rdzl51ePowg-85" edge="1">
          <mxGeometry relative="1" as="geometry">
            <Array as="points">
              <mxPoint x="500" y="600" />
              <mxPoint x="440" y="600" />
              <mxPoint x="440" y="680" />
              <mxPoint x="140" y="680" />
              <mxPoint x="140" y="170" />
            </Array>
          </mxGeometry>
        </mxCell>
        <mxCell id="W9EhOBo04rdzl51ePowg-67" value="LoRa transmit" style="rounded=0;whiteSpace=wrap;html=1;fontSize=16;" parent="1" vertex="1">
          <mxGeometry x="440" y="545" width="120" height="40" as="geometry" />
        </mxCell>
        <mxCell id="W9EhOBo04rdzl51ePowg-68" value="" style="edgeStyle=orthogonalEdgeStyle;rounded=0;orthogonalLoop=1;jettySize=auto;html=1;fontSize=16;" parent="1" source="W9EhOBo04rdzl51ePowg-72" target="W9EhOBo04rdzl51ePowg-51" edge="1">
          <mxGeometry relative="1" as="geometry">
            <mxPoint x="630" y="315" as="targetPoint" />
          </mxGeometry>
        </mxCell>
        <mxCell id="W9EhOBo04rdzl51ePowg-69" value="yes" style="edgeLabel;html=1;align=center;verticalAlign=middle;resizable=0;points=[];fontSize=16;" parent="W9EhOBo04rdzl51ePowg-68" connectable="0" vertex="1">
          <mxGeometry x="0.2072" relative="1" as="geometry">
            <mxPoint as="offset" />
          </mxGeometry>
        </mxCell>
        <mxCell id="W9EhOBo04rdzl51ePowg-70" style="edgeStyle=orthogonalEdgeStyle;rounded=0;orthogonalLoop=1;jettySize=auto;html=1;exitX=1;exitY=0.5;exitDx=0;exitDy=0;entryX=0.5;entryY=0;entryDx=0;entryDy=0;fontSize=16;" parent="1" source="W9EhOBo04rdzl51ePowg-72" target="W9EhOBo04rdzl51ePowg-47" edge="1">
          <mxGeometry relative="1" as="geometry">
            <mxPoint x="810" y="275" as="targetPoint" />
          </mxGeometry>
        </mxCell>
        <mxCell id="W9EhOBo04rdzl51ePowg-71" value="no" style="edgeLabel;html=1;align=center;verticalAlign=middle;resizable=0;points=[];fontSize=16;" parent="W9EhOBo04rdzl51ePowg-70" connectable="0" vertex="1">
          <mxGeometry x="-0.5784" y="2" relative="1" as="geometry">
            <mxPoint as="offset" />
          </mxGeometry>
        </mxCell>
        <mxCell id="W9EhOBo04rdzl51ePowg-72" value="Idle state" style="rhombus;whiteSpace=wrap;html=1;fontSize=16;" parent="1" vertex="1">
          <mxGeometry x="590" y="230" width="128" height="40" as="geometry" />
        </mxCell>
        <mxCell id="W9EhOBo04rdzl51ePowg-73" style="edgeStyle=orthogonalEdgeStyle;rounded=0;orthogonalLoop=1;jettySize=auto;html=1;entryX=0;entryY=0.5;entryDx=0;entryDy=0;fontSize=16;" parent="1" source="W9EhOBo04rdzl51ePowg-74" target="W9EhOBo04rdzl51ePowg-85" edge="1">
          <mxGeometry relative="1" as="geometry">
            <Array as="points">
              <mxPoint x="520" y="680" />
              <mxPoint x="140" y="680" />
              <mxPoint x="140" y="170" />
            </Array>
          </mxGeometry>
        </mxCell>
        <mxCell id="W9EhOBo04rdzl51ePowg-74" value="Idle=1" style="rounded=0;whiteSpace=wrap;html=1;fontSize=16;" parent="1" vertex="1">
          <mxGeometry x="460" y="630" width="120" height="40" as="geometry" />
        </mxCell>
        <mxCell id="W9EhOBo04rdzl51ePowg-75" value="" style="edgeStyle=orthogonalEdgeStyle;rounded=0;orthogonalLoop=1;jettySize=auto;html=1;fontSize=16;" parent="1" source="W9EhOBo04rdzl51ePowg-76" target="W9EhOBo04rdzl51ePowg-81" edge="1">
          <mxGeometry relative="1" as="geometry">
            <Array as="points">
              <mxPoint x="220" y="670" />
              <mxPoint x="420" y="670" />
              <mxPoint x="420" y="100" />
              <mxPoint x="500" y="100" />
            </Array>
          </mxGeometry>
        </mxCell>
        <mxCell id="W9EhOBo04rdzl51ePowg-76" value="current mode switch" style="rounded=0;whiteSpace=wrap;html=1;fontSize=16;" parent="1" vertex="1">
          <mxGeometry x="160" y="610" width="120" height="40" as="geometry" />
        </mxCell>
        <mxCell id="W9EhOBo04rdzl51ePowg-79" style="edgeStyle=orthogonalEdgeStyle;rounded=0;orthogonalLoop=1;jettySize=auto;html=1;exitX=1;exitY=0.5;exitDx=0;exitDy=0;entryX=0.5;entryY=0;entryDx=0;entryDy=0;fontSize=16;" parent="1" source="W9EhOBo04rdzl51ePowg-81" target="W9EhOBo04rdzl51ePowg-72" edge="1">
          <mxGeometry relative="1" as="geometry">
            <mxPoint x="670" y="160" as="targetPoint" />
            <Array as="points">
              <mxPoint x="654" y="140" />
            </Array>
          </mxGeometry>
        </mxCell>
        <mxCell id="W9EhOBo04rdzl51ePowg-80" value="config" style="edgeLabel;html=1;align=center;verticalAlign=middle;resizable=0;points=[];fontSize=16;" parent="W9EhOBo04rdzl51ePowg-79" connectable="0" vertex="1">
          <mxGeometry x="-0.9558" y="1" relative="1" as="geometry">
            <mxPoint x="23" as="offset" />
          </mxGeometry>
        </mxCell>
        <mxCell id="W9EhOBo04rdzl51ePowg-81" value="current mode" style="rhombus;whiteSpace=wrap;html=1;fontSize=16;" parent="1" vertex="1">
          <mxGeometry x="440" y="120" width="120" height="40" as="geometry" />
        </mxCell>
        <mxCell id="W9EhOBo04rdzl51ePowg-82" value="" style="rounded=0;html=1;jettySize=auto;orthogonalLoop=1;fontSize=16;endArrow=classic;endFill=1;strokeWidth=1;shadow=0;labelBackgroundColor=none;edgeStyle=orthogonalEdgeStyle;entryX=0.5;entryY=0;entryDx=0;entryDy=0;" parent="1" source="W9EhOBo04rdzl51ePowg-14" target="W9EhOBo04rdzl51ePowg-85" edge="1">
          <mxGeometry relative="1" as="geometry">
            <mxPoint x="220" y="180" as="targetPoint" />
            <mxPoint x="220" y="130" as="sourcePoint" />
          </mxGeometry>
        </mxCell>
        <mxCell id="W9EhOBo04rdzl51ePowg-83" style="edgeStyle=orthogonalEdgeStyle;rounded=0;orthogonalLoop=1;jettySize=auto;html=1;exitX=1;exitY=0.5;exitDx=0;exitDy=0;entryX=0.5;entryY=0;entryDx=0;entryDy=0;" parent="1" source="W9EhOBo04rdzl51ePowg-85" target="W9EhOBo04rdzl51ePowg-38" edge="1">
          <mxGeometry relative="1" as="geometry">
            <Array as="points">
              <mxPoint x="320" y="170" />
              <mxPoint x="320" y="320" />
              <mxPoint x="220" y="320" />
            </Array>
          </mxGeometry>
        </mxCell>
        <mxCell id="W9EhOBo04rdzl51ePowg-84" value="no" style="edgeLabel;html=1;align=center;verticalAlign=middle;resizable=0;points=[];fontSize=16;" parent="W9EhOBo04rdzl51ePowg-83" connectable="0" vertex="1">
          <mxGeometry x="-0.9201" y="2" relative="1" as="geometry">
            <mxPoint as="offset" />
          </mxGeometry>
        </mxCell>
        <mxCell id="W9EhOBo04rdzl51ePowg-85" value="if IMU got data&lt;div&gt;=1&lt;/div&gt;" style="rhombus;whiteSpace=wrap;html=1;fontSize=16;" parent="1" vertex="1">
          <mxGeometry x="160" y="140" width="120" height="60" as="geometry" />
        </mxCell>
        <mxCell id="W9EhOBo04rdzl51ePowg-86" value="receive_data == &#39;3&#39;" style="edgeLabel;html=1;align=center;verticalAlign=middle;resizable=0;points=[];fontSize=16;" parent="1" connectable="0" vertex="1">
          <mxGeometry x="940" y="600" as="geometry" />
        </mxCell>
        <mxCell id="W9EhOBo04rdzl51ePowg-87" style="edgeStyle=orthogonalEdgeStyle;rounded=0;orthogonalLoop=1;jettySize=auto;html=1;exitX=0.5;exitY=1;exitDx=0;exitDy=0;entryX=0;entryY=0.5;entryDx=0;entryDy=0;" parent="1" source="W9EhOBo04rdzl51ePowg-88" target="W9EhOBo04rdzl51ePowg-85" edge="1">
          <mxGeometry relative="1" as="geometry">
            <Array as="points">
              <mxPoint x="930" y="680" />
              <mxPoint x="140" y="680" />
              <mxPoint x="140" y="170" />
            </Array>
          </mxGeometry>
        </mxCell>
        <mxCell id="W9EhOBo04rdzl51ePowg-88" value="Idle=0" style="rounded=0;whiteSpace=wrap;html=1;fontSize=16;" parent="1" vertex="1">
          <mxGeometry x="870" y="630" width="120" height="40" as="geometry" />
        </mxCell>
        <mxCell id="W9EhOBo04rdzl51ePowg-90" value="" style="edgeStyle=orthogonalEdgeStyle;rounded=0;orthogonalLoop=1;jettySize=auto;html=1;entryX=0.5;entryY=0;entryDx=0;entryDy=0;fontSize=16;" parent="1" source="W9EhOBo04rdzl51ePowg-81" target="W9EhOBo04rdzl51ePowg-89" edge="1">
          <mxGeometry relative="1" as="geometry">
            <Array as="points" />
            <mxPoint x="500" y="210" as="sourcePoint" />
            <mxPoint x="500" y="480" as="targetPoint" />
          </mxGeometry>
        </mxCell>
        <mxCell id="W9EhOBo04rdzl51ePowg-91" value="onFly" style="edgeLabel;html=1;align=center;verticalAlign=middle;resizable=0;points=[];fontSize=16;" parent="W9EhOBo04rdzl51ePowg-90" connectable="0" vertex="1">
          <mxGeometry x="-0.9222" y="2" relative="1" as="geometry">
            <mxPoint x="-2" y="8" as="offset" />
          </mxGeometry>
        </mxCell>
        <mxCell id="W9EhOBo04rdzl51ePowg-89" value="Mach &amp;gt;0.3" style="rhombus;whiteSpace=wrap;html=1;fontSize=16;" parent="1" vertex="1">
          <mxGeometry x="436" y="190" width="128" height="40" as="geometry" />
        </mxCell>
        <mxCell id="W9EhOBo04rdzl51ePowg-98" value="" style="edgeStyle=orthogonalEdgeStyle;rounded=0;orthogonalLoop=1;jettySize=auto;html=1;entryX=0.5;entryY=0;entryDx=0;entryDy=0;fontSize=16;" parent="1" source="W9EhOBo04rdzl51ePowg-89" target="W9EhOBo04rdzl51ePowg-97" edge="1">
          <mxGeometry relative="1" as="geometry">
            <Array as="points" />
            <mxPoint x="500" y="330" as="sourcePoint" />
            <mxPoint x="500" y="480" as="targetPoint" />
          </mxGeometry>
        </mxCell>
        <mxCell id="W9EhOBo04rdzl51ePowg-99" value="yes" style="edgeLabel;html=1;align=center;verticalAlign=middle;resizable=0;points=[];fontSize=16;" parent="W9EhOBo04rdzl51ePowg-98" vertex="1" connectable="0">
          <mxGeometry x="0.4691" y="1" relative="1" as="geometry">
            <mxPoint x="-1" y="-7" as="offset" />
          </mxGeometry>
        </mxCell>
        <mxCell id="W9EhOBo04rdzl51ePowg-108" style="edgeStyle=orthogonalEdgeStyle;rounded=0;orthogonalLoop=1;jettySize=auto;html=1;exitX=0.5;exitY=1;exitDx=0;exitDy=0;entryX=0.5;entryY=0;entryDx=0;entryDy=0;" parent="1" source="W9EhOBo04rdzl51ePowg-113" target="W9EhOBo04rdzl51ePowg-106" edge="1">
          <mxGeometry relative="1" as="geometry" />
        </mxCell>
        <mxCell id="W9EhOBo04rdzl51ePowg-97" value="Roll control" style="rounded=0;whiteSpace=wrap;html=1;fontSize=16;" parent="1" vertex="1">
          <mxGeometry x="440" y="260" width="120" height="40" as="geometry" />
        </mxCell>
        <mxCell id="W9EhOBo04rdzl51ePowg-104" value="" style="edgeStyle=orthogonalEdgeStyle;rounded=0;orthogonalLoop=1;jettySize=auto;html=1;fontSize=16;" parent="1" source="kiDiWYWvkBc3s1HW_-PL-1" target="W9EhOBo04rdzl51ePowg-103" edge="1">
          <mxGeometry relative="1" as="geometry">
            <mxPoint x="790" y="320" as="sourcePoint" />
            <mxPoint x="790" y="385" as="targetPoint" />
          </mxGeometry>
        </mxCell>
        <mxCell id="W9EhOBo04rdzl51ePowg-103" value="Pack downlink data" style="rounded=0;whiteSpace=wrap;html=1;fontSize=16;" parent="1" vertex="1">
          <mxGeometry x="730" y="370" width="120" height="40" as="geometry" />
        </mxCell>
        <mxCell id="W9EhOBo04rdzl51ePowg-107" value="" style="edgeStyle=orthogonalEdgeStyle;rounded=0;orthogonalLoop=1;jettySize=auto;html=1;exitX=1;exitY=0.5;exitDx=0;exitDy=0;entryX=0.5;entryY=0;entryDx=0;entryDy=0;" parent="1" source="W9EhOBo04rdzl51ePowg-89" target="W9EhOBo04rdzl51ePowg-106" edge="1">
          <mxGeometry relative="1" as="geometry">
            <mxPoint x="564" y="280" as="sourcePoint" />
            <mxPoint x="500" y="480" as="targetPoint" />
            <Array as="points">
              <mxPoint x="584" y="210" />
              <mxPoint x="584" y="430" />
              <mxPoint x="500" y="430" />
            </Array>
          </mxGeometry>
        </mxCell>
        <mxCell id="W9EhOBo04rdzl51ePowg-112" value="no" style="edgeLabel;html=1;align=center;verticalAlign=middle;resizable=0;points=[];fontSize=16;" parent="W9EhOBo04rdzl51ePowg-107" vertex="1" connectable="0">
          <mxGeometry x="-0.9321" relative="1" as="geometry">
            <mxPoint as="offset" />
          </mxGeometry>
        </mxCell>
        <mxCell id="W9EhOBo04rdzl51ePowg-109" style="edgeStyle=orthogonalEdgeStyle;rounded=0;orthogonalLoop=1;jettySize=auto;html=1;exitX=0.5;exitY=1;exitDx=0;exitDy=0;entryX=0.5;entryY=0;entryDx=0;entryDy=0;" parent="1" source="W9EhOBo04rdzl51ePowg-118" target="W9EhOBo04rdzl51ePowg-67" edge="1">
          <mxGeometry relative="1" as="geometry" />
        </mxCell>
        <mxCell id="W9EhOBo04rdzl51ePowg-106" value="Data record" style="rounded=0;whiteSpace=wrap;html=1;fontSize=16;" parent="1" vertex="1">
          <mxGeometry x="440" y="440" width="120" height="40" as="geometry" />
        </mxCell>
        <mxCell id="W9EhOBo04rdzl51ePowg-111" value="" style="edgeStyle=orthogonalEdgeStyle;rounded=0;orthogonalLoop=1;jettySize=auto;html=1;exitX=0.5;exitY=1;exitDx=0;exitDy=0;entryX=0.5;entryY=0;entryDx=0;entryDy=0;" parent="1" source="W9EhOBo04rdzl51ePowg-97" target="W9EhOBo04rdzl51ePowg-110" edge="1">
          <mxGeometry relative="1" as="geometry">
            <mxPoint x="500" y="330" as="sourcePoint" />
            <mxPoint x="500" y="450" as="targetPoint" />
          </mxGeometry>
        </mxCell>
        <mxCell id="W9EhOBo04rdzl51ePowg-116" style="edgeStyle=orthogonalEdgeStyle;rounded=0;orthogonalLoop=1;jettySize=auto;html=1;exitX=1;exitY=0.5;exitDx=0;exitDy=0;entryX=0.5;entryY=0;entryDx=0;entryDy=0;" parent="1" source="W9EhOBo04rdzl51ePowg-110" target="W9EhOBo04rdzl51ePowg-106" edge="1">
          <mxGeometry relative="1" as="geometry">
            <Array as="points">
              <mxPoint x="584" y="330" />
              <mxPoint x="584" y="430" />
              <mxPoint x="500" y="430" />
            </Array>
          </mxGeometry>
        </mxCell>
        <mxCell id="W9EhOBo04rdzl51ePowg-117" value="no" style="edgeLabel;html=1;align=center;verticalAlign=middle;resizable=0;points=[];fontSize=16;" parent="W9EhOBo04rdzl51ePowg-116" vertex="1" connectable="0">
          <mxGeometry x="-0.9196" y="-2" relative="1" as="geometry">
            <mxPoint as="offset" />
          </mxGeometry>
        </mxCell>
        <mxCell id="W9EhOBo04rdzl51ePowg-110" value="Mach &amp;gt;0.7" style="rhombus;whiteSpace=wrap;html=1;fontSize=16;" parent="1" vertex="1">
          <mxGeometry x="436" y="320" width="128" height="40" as="geometry" />
        </mxCell>
        <mxCell id="W9EhOBo04rdzl51ePowg-114" value="" style="edgeStyle=orthogonalEdgeStyle;rounded=0;orthogonalLoop=1;jettySize=auto;html=1;exitX=0.5;exitY=1;exitDx=0;exitDy=0;entryX=0.5;entryY=0;entryDx=0;entryDy=0;" parent="1" source="W9EhOBo04rdzl51ePowg-110" target="W9EhOBo04rdzl51ePowg-113" edge="1">
          <mxGeometry relative="1" as="geometry">
            <mxPoint x="500" y="380" as="sourcePoint" />
            <mxPoint x="500" y="450" as="targetPoint" />
          </mxGeometry>
        </mxCell>
        <mxCell id="W9EhOBo04rdzl51ePowg-115" value="yes" style="edgeLabel;html=1;align=center;verticalAlign=middle;resizable=0;points=[];fontSize=16;" parent="W9EhOBo04rdzl51ePowg-114" vertex="1" connectable="0">
          <mxGeometry x="-0.4" y="-2" relative="1" as="geometry">
            <mxPoint as="offset" />
          </mxGeometry>
        </mxCell>
        <mxCell id="W9EhOBo04rdzl51ePowg-113" value="`\alpha`,`\beta` control" style="rounded=0;whiteSpace=wrap;html=1;fontSize=16;" parent="1" vertex="1">
          <mxGeometry x="440" y="385" width="120" height="40" as="geometry" />
        </mxCell>
        <mxCell id="W9EhOBo04rdzl51ePowg-119" value="" style="edgeStyle=orthogonalEdgeStyle;rounded=0;orthogonalLoop=1;jettySize=auto;html=1;exitX=0.5;exitY=1;exitDx=0;exitDy=0;entryX=0.5;entryY=0;entryDx=0;entryDy=0;" parent="1" source="W9EhOBo04rdzl51ePowg-106" target="W9EhOBo04rdzl51ePowg-118" edge="1">
          <mxGeometry relative="1" as="geometry">
            <mxPoint x="500" y="480" as="sourcePoint" />
            <mxPoint x="500" y="530" as="targetPoint" />
          </mxGeometry>
        </mxCell>
        <mxCell id="W9EhOBo04rdzl51ePowg-118" value="Pack downlink data" style="rounded=0;whiteSpace=wrap;html=1;fontSize=16;" parent="1" vertex="1">
          <mxGeometry x="440" y="490" width="120" height="40" as="geometry" />
        </mxCell>
        <mxCell id="kiDiWYWvkBc3s1HW_-PL-2" value="" style="edgeStyle=orthogonalEdgeStyle;rounded=0;orthogonalLoop=1;jettySize=auto;html=1;fontSize=16;" parent="1" source="W9EhOBo04rdzl51ePowg-47" target="kiDiWYWvkBc3s1HW_-PL-1" edge="1">
          <mxGeometry relative="1" as="geometry">
            <mxPoint x="790" y="310" as="sourcePoint" />
            <mxPoint x="790" y="370" as="targetPoint" />
          </mxGeometry>
        </mxCell>
        <mxCell id="kiDiWYWvkBc3s1HW_-PL-1" value="Read motor angle" style="rounded=0;whiteSpace=wrap;html=1;fontSize=16;" parent="1" vertex="1">
          <mxGeometry x="730" y="320" width="120" height="40" as="geometry" />
        </mxCell>
      </root>
    </mxGraphModel>
  </diagram>
</mxfile>
